<svg xmlns="http://www.w3.org/2000/svg" viewBox="0 0 589.65 213.84"><defs><style>.cls-1{fill:#634e42;}</style></defs><title>Asset 1</title><g id="Layer_2" data-name="Layer 2"><g id="текст"><path class="cls-1" d="M6.13,93h28q22.62,0,34.73-11.4T81,49q0-21.23-12.18-32.64T34.1,5h-28ZM34.41,0Q59.56,0,73.35,12.82t13.8,36.1q0,23.34-13.8,36.17T34.41,97.91H0V0Z"/><path class="cls-1" d="M111.3,51.23H141q13.88,0,21.77-6.18t7.9-17q0-10.92-8-17.1T140.8,4.89H111.3Zm0,46.68h-6.06V0h36.11q16.39,0,26,7.53T176.83,28a25,25,0,0,1-6.74,17.78Q163.27,53,151.23,55.1l28.45,42.81h-7.14l-27.66-42a29.81,29.81,0,0,1-3.92.2H111.3Z"/><polygon class="cls-1" points="228.65 97.91 228.65 55.23 188.4 0 195.53 0 231.48 49.74 231.87 49.74 267.81 0 274.87 0 234.7 55.23 234.7 97.91 228.65 97.91"/><polygon class="cls-1" points="23.05 212.41 23.05 114.5 86.67 114.5 86.67 119.46 29.11 119.46 29.11 160.37 82.07 160.37 82.07 165.26 29.11 165.26 29.11 212.41 23.05 212.41"/><polygon class="cls-1" points="169.45 212.41 105.37 212.41 105.24 97.91 111.3 97.91 111.42 207.46 169.45 207.46 169.45 212.41"/><path class="cls-1" d="M193.9,130.38q-11.65,12.21-11.65,33T194,196.54q11.66,12.28,31.35,12.28t31.43-12.28q11.65-12.28,11.65-33.11t-11.65-33Q245,118.1,225.33,118.1T193.9,130.38m67.38-3.66q13.34,13.64,13.34,36.71T261.28,200.2q-13.26,13.64-36,13.64T189.38,200.2Q176,186.63,176,163.42t13.34-36.71q13.34-13.64,35.95-13.64t36,13.64"/><polygon class="cls-1" points="318.54 212.41 313.17 212.41 282.28 114.5 288.56 114.5 315.85 203.12 316.24 203.12 345.29 114.5 350.96 114.5 380.09 203.12 380.47 203.12 407.68 114.5 414.04 114.5 383.15 212.41 377.79 212.41 348.35 124.55 347.97 124.55 318.54 212.41"/><polygon class="cls-1" points="494.67 212.41 430.21 212.41 430.21 114.5 494.67 114.5 494.67 119.46 436.27 119.46 436.27 159.76 491.92 159.76 491.92 164.65 436.27 164.65 436.27 207.46 494.67 207.46 494.67 212.41"/><path class="cls-1" d="M521.27,165.73h29.66q13.87,0,21.77-6.17t7.9-17q0-10.92-8-17.1t-21.85-6.11H521.27Zm0,46.68h-6.06V114.5h36.1q16.4,0,26,7.53t9.5,20.42a25,25,0,0,1-6.74,17.78q-6.83,7.26-18.86,9.36l28.44,42.81h-7.13l-27.67-42a29.61,29.61,0,0,1-3.91.2H521.27Z"/><polygon class="cls-1" points="0.4 210.75 0.4 208.01 16.14 208.01 16.14 209.4 1.94 209.4 1.94 211.58 0.4 210.75"/><path class="cls-1" d="M8.16,197.37a2.67,2.67,0,0,0-1-2.08,3.42,3.42,0,0,0-2.34-.85,3.41,3.41,0,0,0-2.34.86,2.71,2.71,0,0,0,0,4.15,3.41,3.41,0,0,0,2.34.86,3.4,3.4,0,0,0,2.34-.86,2.68,2.68,0,0,0,1-2.08m8.38,1.52L15.7,200l-6.45-3.77a4.12,4.12,0,0,1,.28,1.42,3.58,3.58,0,0,1-1.35,2.82,5,5,0,0,1-3.33,1.16,5.3,5.3,0,0,1-2.45-.56,4.41,4.41,0,0,1-1.74-1.59,4,4,0,0,1-.65-2.2,3.88,3.88,0,0,1,.63-2.14,4.32,4.32,0,0,1,1.77-1.54,5.41,5.41,0,0,1,2.42-.56,6.62,6.62,0,0,1,2,.35,13.47,13.47,0,0,1,2.56,1.24Z"/><path class="cls-1" d="M1.53,185.52a2.57,2.57,0,0,0,.77,1.9,2.51,2.51,0,0,0,1.82.75,2.69,2.69,0,0,0,1.9-.81,2.54,2.54,0,0,0,.85-1.89,2.43,2.43,0,0,0-.39-1.31,2.67,2.67,0,0,0-1.05-1,2.9,2.9,0,0,0-1.34-.35,2.65,2.65,0,0,0-1.76.68,2.46,2.46,0,0,0-.8,2m6.76-.07a3.16,3.16,0,0,0,1.05,2.41,3.51,3.51,0,0,0,2.46,1,3.4,3.4,0,0,0,1.64-.42,2.92,2.92,0,0,0,1.19-1.17,3.49,3.49,0,0,0,.42-1.73,3.07,3.07,0,0,0-1-2.42,3.47,3.47,0,0,0-2.38-.9,3.34,3.34,0,0,0-2.34.95,3,3,0,0,0-1,2.29m-.79-2a5.32,5.32,0,0,1,1.81-2,4.4,4.4,0,0,1,2.31-.61,5.17,5.17,0,0,1,3.21,1.05,4.35,4.35,0,0,1,1.7,3.69A4.22,4.22,0,0,1,15,189a5.15,5.15,0,0,1-3.29,1.19,4.56,4.56,0,0,1-2.37-.63,5.47,5.47,0,0,1-1.88-2.08A4.13,4.13,0,0,1,6,189.07a3.76,3.76,0,0,1-1.9.51,4.09,4.09,0,0,1-2-.54,4,4,0,0,1-1.54-1.51A4,4,0,0,1,0,185.45a3.8,3.8,0,0,1,.57-2A4,4,0,0,1,2.11,182a4.23,4.23,0,0,1,2-.52,3.66,3.66,0,0,1,1.91.5,4.31,4.31,0,0,1,1.45,1.49"/><path class="cls-1" d="M.4,169.63h1.5v5l4.29.7a5.26,5.26,0,0,1-.3-1.64,4,4,0,0,1,1.44-3.14A5.47,5.47,0,0,1,11,169.27a6.36,6.36,0,0,1,2.85.63,4.77,4.77,0,0,1,2,1.72,4.56,4.56,0,0,1,.69,2.51A3.88,3.88,0,0,1,15.37,177a5,5,0,0,1-3,1.39V177a3.81,3.81,0,0,0,1.48-.54,2.85,2.85,0,0,0,.92-1,2.77,2.77,0,0,0,.35-1.34,3,3,0,0,0-1.18-2.36,4.42,4.42,0,0,0-2.94-1,3.73,3.73,0,0,0-2.59.89,3,3,0,0,0-1,2.38,7.15,7.15,0,0,0,.84,3L.4,175.67Z"/><rect class="cls-1" x="9.57" y="161.62" width="1.31" height="5.21"/><path class="cls-1" d="M5.32,157.79v1.34a5.79,5.79,0,0,1-3.82-1.38A4.18,4.18,0,0,1,0,154.48a3.89,3.89,0,0,1,1.4-3.11,5,5,0,0,1,3.31-1.19,5.69,5.69,0,0,1,2.51.57A18,18,0,0,1,10.4,153l4.22,3.47V150h1.52v9.46l-6.5-5.32A19.21,19.21,0,0,0,6.73,152a4.32,4.32,0,0,0-2-.49,3.27,3.27,0,0,0-2.29.88,2.79,2.79,0,0,0-1,2.15,2.84,2.84,0,0,0,1,2.22,4.61,4.61,0,0,0,2.83,1"/><path class="cls-1" d="M8.3,146.38a14.57,14.57,0,0,0,4-.42,4.35,4.35,0,0,0,2.07-1.25,2.64,2.64,0,0,0,.71-1.74,2.61,2.61,0,0,0-.69-1.73A4.27,4.27,0,0,0,12.35,140a13.75,13.75,0,0,0-4-.52,13.59,13.59,0,0,0-3.89.46,4.63,4.63,0,0,0-2.22,1.28,2.5,2.5,0,0,0,0,3.47A4.37,4.37,0,0,0,4.26,146a14.42,14.42,0,0,0,4,.43m0,1.32a15.33,15.33,0,0,1-4.82-.59,5.59,5.59,0,0,1-2.58-1.67A3.73,3.73,0,0,1,0,143a3.82,3.82,0,0,1,.88-2.46,5.86,5.86,0,0,1,2.65-1.74,14.3,14.3,0,0,1,4.74-.64,14.33,14.33,0,0,1,4.72.63,5.83,5.83,0,0,1,2.65,1.74,3.83,3.83,0,0,1,.89,2.46,3.73,3.73,0,0,1-.87,2.41,5.6,5.6,0,0,1-2.59,1.67,15.14,15.14,0,0,1-4.81.6"/><polygon class="cls-1" points="0.4 133 0.4 130.26 16.14 130.26 16.14 131.64 1.94 131.64 1.94 133.83 0.4 133"/><path class="cls-1" d="M8.16,119.62a2.67,2.67,0,0,0-1-2.08,3.42,3.42,0,0,0-2.34-.85,3.41,3.41,0,0,0-2.34.86,2.71,2.71,0,0,0,0,4.15,3.4,3.4,0,0,0,2.34.86,3.4,3.4,0,0,0,2.34-.86,2.68,2.68,0,0,0,1-2.08m8.38,1.52-.84,1.15-6.45-3.77a4.12,4.12,0,0,1,.28,1.42,3.58,3.58,0,0,1-1.35,2.82,5,5,0,0,1-3.33,1.16,5.31,5.31,0,0,1-2.45-.56,4.41,4.41,0,0,1-1.74-1.59,4,4,0,0,1-.65-2.2,3.88,3.88,0,0,1,.63-2.14,4.31,4.31,0,0,1,1.77-1.54,5.41,5.41,0,0,1,2.42-.56,6.59,6.59,0,0,1,2,.35,13.39,13.39,0,0,1,2.56,1.24Z"/></g></g></svg>